<svg width="26" height="15" viewBox="0 0 26 15" fill="none" xmlns="http://www.w3.org/2000/svg">
<mask id="path-1-outside-1_2_8" maskUnits="userSpaceOnUse" x="0.688004" y="0.124" width="25" height="15" fill="black">
<rect fill="white" x="0.688004" y="0.124" width="25" height="15"/>
<path d="M3.968 11.024C3.48 10.704 3.148 10.256 2.972 9.68C2.652 10.128 2.42 10.632 2.276 11.192C2.14 11.76 2.072 12.212 2.072 12.548C2.072 12.884 2.1 13.064 2.156 13.088C2.356 13.088 2.96 12.4 3.968 11.024ZM3.284 9.14L3.272 9.272C3.408 9.88 3.724 10.352 4.22 10.688C4.444 10.384 4.796 9.9 5.276 9.236C5.756 8.564 6.152 8.016 6.464 7.592C6.776 7.16 7.16 6.64 7.616 6.032C8.072 5.416 8.464 4.912 8.792 4.52C9.128 4.12 9.472 3.728 9.824 3.344C10.52 2.584 11.044 2.204 11.396 2.204C11.548 2.204 11.624 2.328 11.624 2.576C11.624 2.984 11.448 3.616 11.096 4.472C10.752 5.32 10.348 6.096 9.884 6.8C9.428 7.496 9.068 7.844 8.804 7.844C8.644 7.844 8.564 7.684 8.564 7.364C8.564 7.036 8.688 6.584 8.936 6.008C9.184 5.424 9.384 5.132 9.536 5.132C9.592 5.132 9.62 5.168 9.62 5.24C9.62 5.264 9.616 5.284 9.608 5.3C9.416 5.54 9.244 5.872 9.092 6.296C8.94 6.712 8.864 7.032 8.864 7.256C8.864 7.472 8.912 7.58 9.008 7.58C9.192 7.58 9.48 7.232 9.872 6.536C10.264 5.84 10.616 5.088 10.928 4.28C11.248 3.472 11.408 2.912 11.408 2.6C11.408 2.464 11.372 2.396 11.3 2.396C11.14 2.396 10.708 2.828 10.004 3.692C9.308 4.556 8.36 5.78 7.16 7.364C5.968 8.948 5.076 10.108 4.484 10.844C4.956 11.092 5.456 11.216 5.984 11.216C6.512 11.216 7.068 11.168 7.652 11.072C8.236 10.976 8.68 10.88 8.984 10.784L9.452 10.628H9.488C9.536 10.628 9.56 10.644 9.56 10.676C9.56 10.732 9.532 10.768 9.476 10.784C7.956 11.264 6.692 11.504 5.684 11.504C5.132 11.504 4.644 11.392 4.22 11.168C2.956 12.72 2.18 13.496 1.892 13.496C1.756 13.496 1.688 13.252 1.688 12.764C1.688 12.276 1.808 11.712 2.048 11.072C2.296 10.44 2.54 9.952 2.78 9.608C3.028 9.256 3.184 9.08 3.248 9.08C3.272 9.08 3.284 9.1 3.284 9.14Z"/>
<path d="M10.6678 10.94C10.4838 10.94 10.3758 10.892 10.3438 10.796C10.3438 10.692 10.6878 10.228 11.3758 9.404C12.0638 8.58 12.8198 7.688 13.6438 6.728C14.4678 5.76 15.2238 4.78 15.9118 3.788C16.5998 2.788 16.9438 2.084 16.9438 1.676C16.9438 1.42 16.8118 1.292 16.5478 1.292C16.1158 1.292 15.6598 1.408 15.1798 1.64C14.6998 1.864 14.2478 2.16 13.8238 2.528C13.4078 2.888 13.0038 3.292 12.6118 3.74C12.2198 4.188 11.8878 4.632 11.6158 5.072C10.9998 6.032 10.6918 6.732 10.6918 7.172C10.6918 7.404 10.7878 7.52 10.9798 7.52C11.2438 7.52 11.6718 7.296 12.2638 6.848C12.8558 6.4 13.3798 5.952 13.8358 5.504L14.5198 4.844C14.5358 4.828 14.5598 4.82 14.5918 4.82C14.6318 4.82 14.6518 4.832 14.6518 4.856L14.6278 4.904C14.5558 4.976 14.4558 5.076 14.3278 5.204C14.2078 5.332 13.9758 5.556 13.6318 5.876C13.2878 6.188 12.9638 6.468 12.6598 6.716C12.3638 6.956 12.0438 7.176 11.6998 7.376C11.3558 7.576 11.0838 7.676 10.8838 7.676C10.5958 7.676 10.4518 7.504 10.4518 7.16C10.4518 6.808 10.5518 6.384 10.7518 5.888C10.9598 5.384 11.2558 4.86 11.6398 4.316C12.0318 3.772 12.4678 3.26 12.9478 2.78C13.4358 2.3 13.9958 1.904 14.6278 1.592C15.2598 1.28 15.8878 1.124 16.5118 1.124C16.6718 1.124 16.8278 1.184 16.9798 1.304C17.1318 1.416 17.2078 1.592 17.2078 1.832C17.2078 2.064 17.1198 2.372 16.9438 2.756C16.7758 3.14 16.5198 3.588 16.1758 4.1C15.8318 4.612 15.5118 5.076 15.2158 5.492C14.9278 5.9 14.5398 6.4 14.0518 6.992C13.5718 7.584 13.2358 7.996 13.0438 8.228C12.8518 8.452 12.5678 8.788 12.1918 9.236C12.1998 9.244 12.2358 9.224 12.2998 9.176C15.7078 6.088 17.6318 4.348 18.0718 3.956C18.5118 3.564 18.7478 3.348 18.7798 3.308C18.8198 3.268 18.8478 3.24 18.8638 3.224C18.9278 3.16 19.0078 3.128 19.1038 3.128C19.2078 3.128 19.2598 3.176 19.2598 3.272C19.2598 3.512 18.9078 4.12 18.2038 5.096C17.5078 6.072 16.8118 7.004 16.1158 7.892C15.4198 8.78 15.0718 9.24 15.0718 9.272L15.0838 9.284C15.5718 8.86 16.5718 7.944 18.0838 6.536C19.6038 5.12 20.9278 3.9 22.0558 2.876C23.1918 1.852 23.8238 1.34 23.9518 1.34C24.0398 1.34 24.0838 1.396 24.0838 1.508C24.0838 1.724 23.8998 2.108 23.5318 2.66C23.1718 3.212 22.5238 4.08 21.5878 5.264C21.5478 5.312 20.8998 6.088 19.6438 7.592C16.8758 10.896 15.4918 12.804 15.4918 13.316C15.4918 13.348 15.5158 13.364 15.5638 13.364C15.6198 13.364 15.8198 13.272 16.1638 13.088C16.5158 12.912 16.7598 12.764 16.8958 12.644C17.0318 12.524 17.1118 12.464 17.1358 12.464C17.1598 12.464 17.1718 12.48 17.1718 12.512C17.1718 12.552 17.1638 12.58 17.1478 12.596C17.0598 12.708 16.7878 12.892 16.3318 13.148C15.8838 13.404 15.5998 13.532 15.4798 13.532C15.3598 13.532 15.2998 13.48 15.2998 13.376C15.2998 12.872 15.7278 11.984 16.5838 10.712C17.9278 8.704 19.5558 6.644 21.4678 4.532C21.7078 4.26 22.1518 3.724 22.7998 2.924C23.4478 2.124 23.7718 1.692 23.7718 1.628C23.7718 1.612 23.7678 1.604 23.7598 1.604C23.7118 1.604 22.2318 2.94 19.3198 5.612C16.4158 8.284 14.5358 10.028 13.6798 10.844C13.5838 10.94 13.4918 10.988 13.4038 10.988C13.1718 10.988 13.0558 10.96 13.0558 10.904C13.0558 10.848 13.1118 10.752 13.2238 10.616C13.3358 10.472 13.9358 9.736 15.0238 8.408C17.5838 5.28 18.8638 3.64 18.8638 3.488L18.8518 3.476C18.7798 3.508 17.7318 4.444 15.7078 6.284C12.7478 8.956 11.0678 10.508 10.6678 10.94Z"/>
</mask>
<path d="M3.968 11.024C3.48 10.704 3.148 10.256 2.972 9.68C2.652 10.128 2.42 10.632 2.276 11.192C2.14 11.76 2.072 12.212 2.072 12.548C2.072 12.884 2.1 13.064 2.156 13.088C2.356 13.088 2.96 12.4 3.968 11.024ZM3.284 9.14L3.272 9.272C3.408 9.88 3.724 10.352 4.22 10.688C4.444 10.384 4.796 9.9 5.276 9.236C5.756 8.564 6.152 8.016 6.464 7.592C6.776 7.16 7.16 6.64 7.616 6.032C8.072 5.416 8.464 4.912 8.792 4.52C9.128 4.12 9.472 3.728 9.824 3.344C10.52 2.584 11.044 2.204 11.396 2.204C11.548 2.204 11.624 2.328 11.624 2.576C11.624 2.984 11.448 3.616 11.096 4.472C10.752 5.32 10.348 6.096 9.884 6.8C9.428 7.496 9.068 7.844 8.804 7.844C8.644 7.844 8.564 7.684 8.564 7.364C8.564 7.036 8.688 6.584 8.936 6.008C9.184 5.424 9.384 5.132 9.536 5.132C9.592 5.132 9.62 5.168 9.62 5.24C9.62 5.264 9.616 5.284 9.608 5.3C9.416 5.54 9.244 5.872 9.092 6.296C8.94 6.712 8.864 7.032 8.864 7.256C8.864 7.472 8.912 7.58 9.008 7.58C9.192 7.58 9.48 7.232 9.872 6.536C10.264 5.84 10.616 5.088 10.928 4.28C11.248 3.472 11.408 2.912 11.408 2.6C11.408 2.464 11.372 2.396 11.3 2.396C11.14 2.396 10.708 2.828 10.004 3.692C9.308 4.556 8.36 5.78 7.16 7.364C5.968 8.948 5.076 10.108 4.484 10.844C4.956 11.092 5.456 11.216 5.984 11.216C6.512 11.216 7.068 11.168 7.652 11.072C8.236 10.976 8.68 10.88 8.984 10.784L9.452 10.628H9.488C9.536 10.628 9.56 10.644 9.56 10.676C9.56 10.732 9.532 10.768 9.476 10.784C7.956 11.264 6.692 11.504 5.684 11.504C5.132 11.504 4.644 11.392 4.22 11.168C2.956 12.72 2.18 13.496 1.892 13.496C1.756 13.496 1.688 13.252 1.688 12.764C1.688 12.276 1.808 11.712 2.048 11.072C2.296 10.44 2.54 9.952 2.78 9.608C3.028 9.256 3.184 9.08 3.248 9.08C3.272 9.08 3.284 9.1 3.284 9.14Z" fill="#191919"/>
<path d="M10.6678 10.94C10.4838 10.94 10.3758 10.892 10.3438 10.796C10.3438 10.692 10.6878 10.228 11.3758 9.404C12.0638 8.58 12.8198 7.688 13.6438 6.728C14.4678 5.76 15.2238 4.78 15.9118 3.788C16.5998 2.788 16.9438 2.084 16.9438 1.676C16.9438 1.42 16.8118 1.292 16.5478 1.292C16.1158 1.292 15.6598 1.408 15.1798 1.64C14.6998 1.864 14.2478 2.16 13.8238 2.528C13.4078 2.888 13.0038 3.292 12.6118 3.74C12.2198 4.188 11.8878 4.632 11.6158 5.072C10.9998 6.032 10.6918 6.732 10.6918 7.172C10.6918 7.404 10.7878 7.52 10.9798 7.52C11.2438 7.52 11.6718 7.296 12.2638 6.848C12.8558 6.4 13.3798 5.952 13.8358 5.504L14.5198 4.844C14.5358 4.828 14.5598 4.82 14.5918 4.82C14.6318 4.82 14.6518 4.832 14.6518 4.856L14.6278 4.904C14.5558 4.976 14.4558 5.076 14.3278 5.204C14.2078 5.332 13.9758 5.556 13.6318 5.876C13.2878 6.188 12.9638 6.468 12.6598 6.716C12.3638 6.956 12.0438 7.176 11.6998 7.376C11.3558 7.576 11.0838 7.676 10.8838 7.676C10.5958 7.676 10.4518 7.504 10.4518 7.16C10.4518 6.808 10.5518 6.384 10.7518 5.888C10.9598 5.384 11.2558 4.86 11.6398 4.316C12.0318 3.772 12.4678 3.26 12.9478 2.78C13.4358 2.3 13.9958 1.904 14.6278 1.592C15.2598 1.28 15.8878 1.124 16.5118 1.124C16.6718 1.124 16.8278 1.184 16.9798 1.304C17.1318 1.416 17.2078 1.592 17.2078 1.832C17.2078 2.064 17.1198 2.372 16.9438 2.756C16.7758 3.14 16.5198 3.588 16.1758 4.1C15.8318 4.612 15.5118 5.076 15.2158 5.492C14.9278 5.9 14.5398 6.4 14.0518 6.992C13.5718 7.584 13.2358 7.996 13.0438 8.228C12.8518 8.452 12.5678 8.788 12.1918 9.236C12.1998 9.244 12.2358 9.224 12.2998 9.176C15.7078 6.088 17.6318 4.348 18.0718 3.956C18.5118 3.564 18.7478 3.348 18.7798 3.308C18.8198 3.268 18.8478 3.24 18.8638 3.224C18.9278 3.16 19.0078 3.128 19.1038 3.128C19.2078 3.128 19.2598 3.176 19.2598 3.272C19.2598 3.512 18.9078 4.12 18.2038 5.096C17.5078 6.072 16.8118 7.004 16.1158 7.892C15.4198 8.78 15.0718 9.24 15.0718 9.272L15.0838 9.284C15.5718 8.86 16.5718 7.944 18.0838 6.536C19.6038 5.12 20.9278 3.9 22.0558 2.876C23.1918 1.852 23.8238 1.34 23.9518 1.34C24.0398 1.34 24.0838 1.396 24.0838 1.508C24.0838 1.724 23.8998 2.108 23.5318 2.66C23.1718 3.212 22.5238 4.08 21.5878 5.264C21.5478 5.312 20.8998 6.088 19.6438 7.592C16.8758 10.896 15.4918 12.804 15.4918 13.316C15.4918 13.348 15.5158 13.364 15.5638 13.364C15.6198 13.364 15.8198 13.272 16.1638 13.088C16.5158 12.912 16.7598 12.764 16.8958 12.644C17.0318 12.524 17.1118 12.464 17.1358 12.464C17.1598 12.464 17.1718 12.48 17.1718 12.512C17.1718 12.552 17.1638 12.58 17.1478 12.596C17.0598 12.708 16.7878 12.892 16.3318 13.148C15.8838 13.404 15.5998 13.532 15.4798 13.532C15.3598 13.532 15.2998 13.48 15.2998 13.376C15.2998 12.872 15.7278 11.984 16.5838 10.712C17.9278 8.704 19.5558 6.644 21.4678 4.532C21.7078 4.26 22.1518 3.724 22.7998 2.924C23.4478 2.124 23.7718 1.692 23.7718 1.628C23.7718 1.612 23.7678 1.604 23.7598 1.604C23.7118 1.604 22.2318 2.94 19.3198 5.612C16.4158 8.284 14.5358 10.028 13.6798 10.844C13.5838 10.94 13.4918 10.988 13.4038 10.988C13.1718 10.988 13.0558 10.96 13.0558 10.904C13.0558 10.848 13.1118 10.752 13.2238 10.616C13.3358 10.472 13.9358 9.736 15.0238 8.408C17.5838 5.28 18.8638 3.64 18.8638 3.488L18.8518 3.476C18.7798 3.508 17.7318 4.444 15.7078 6.284C12.7478 8.956 11.0678 10.508 10.6678 10.94Z" fill="#191919"/>
<path d="M3.968 11.024C3.48 10.704 3.148 10.256 2.972 9.68C2.652 10.128 2.42 10.632 2.276 11.192C2.14 11.76 2.072 12.212 2.072 12.548C2.072 12.884 2.1 13.064 2.156 13.088C2.356 13.088 2.96 12.4 3.968 11.024ZM3.284 9.14L3.272 9.272C3.408 9.88 3.724 10.352 4.22 10.688C4.444 10.384 4.796 9.9 5.276 9.236C5.756 8.564 6.152 8.016 6.464 7.592C6.776 7.16 7.16 6.64 7.616 6.032C8.072 5.416 8.464 4.912 8.792 4.52C9.128 4.12 9.472 3.728 9.824 3.344C10.52 2.584 11.044 2.204 11.396 2.204C11.548 2.204 11.624 2.328 11.624 2.576C11.624 2.984 11.448 3.616 11.096 4.472C10.752 5.32 10.348 6.096 9.884 6.8C9.428 7.496 9.068 7.844 8.804 7.844C8.644 7.844 8.564 7.684 8.564 7.364C8.564 7.036 8.688 6.584 8.936 6.008C9.184 5.424 9.384 5.132 9.536 5.132C9.592 5.132 9.62 5.168 9.62 5.24C9.62 5.264 9.616 5.284 9.608 5.3C9.416 5.54 9.244 5.872 9.092 6.296C8.94 6.712 8.864 7.032 8.864 7.256C8.864 7.472 8.912 7.58 9.008 7.58C9.192 7.58 9.48 7.232 9.872 6.536C10.264 5.84 10.616 5.088 10.928 4.28C11.248 3.472 11.408 2.912 11.408 2.6C11.408 2.464 11.372 2.396 11.3 2.396C11.14 2.396 10.708 2.828 10.004 3.692C9.308 4.556 8.36 5.78 7.16 7.364C5.968 8.948 5.076 10.108 4.484 10.844C4.956 11.092 5.456 11.216 5.984 11.216C6.512 11.216 7.068 11.168 7.652 11.072C8.236 10.976 8.68 10.88 8.984 10.784L9.452 10.628H9.488C9.536 10.628 9.56 10.644 9.56 10.676C9.56 10.732 9.532 10.768 9.476 10.784C7.956 11.264 6.692 11.504 5.684 11.504C5.132 11.504 4.644 11.392 4.22 11.168C2.956 12.72 2.18 13.496 1.892 13.496C1.756 13.496 1.688 13.252 1.688 12.764C1.688 12.276 1.808 11.712 2.048 11.072C2.296 10.44 2.54 9.952 2.78 9.608C3.028 9.256 3.184 9.08 3.248 9.08C3.272 9.08 3.284 9.1 3.284 9.14Z" stroke="#191919" stroke-width="2" mask="url(#path-1-outside-1_2_8)"/>
<path d="M10.6678 10.94C10.4838 10.94 10.3758 10.892 10.3438 10.796C10.3438 10.692 10.6878 10.228 11.3758 9.404C12.0638 8.58 12.8198 7.688 13.6438 6.728C14.4678 5.76 15.2238 4.78 15.9118 3.788C16.5998 2.788 16.9438 2.084 16.9438 1.676C16.9438 1.42 16.8118 1.292 16.5478 1.292C16.1158 1.292 15.6598 1.408 15.1798 1.64C14.6998 1.864 14.2478 2.16 13.8238 2.528C13.4078 2.888 13.0038 3.292 12.6118 3.74C12.2198 4.188 11.8878 4.632 11.6158 5.072C10.9998 6.032 10.6918 6.732 10.6918 7.172C10.6918 7.404 10.7878 7.52 10.9798 7.52C11.2438 7.52 11.6718 7.296 12.2638 6.848C12.8558 6.4 13.3798 5.952 13.8358 5.504L14.5198 4.844C14.5358 4.828 14.5598 4.82 14.5918 4.82C14.6318 4.82 14.6518 4.832 14.6518 4.856L14.6278 4.904C14.5558 4.976 14.4558 5.076 14.3278 5.204C14.2078 5.332 13.9758 5.556 13.6318 5.876C13.2878 6.188 12.9638 6.468 12.6598 6.716C12.3638 6.956 12.0438 7.176 11.6998 7.376C11.3558 7.576 11.0838 7.676 10.8838 7.676C10.5958 7.676 10.4518 7.504 10.4518 7.16C10.4518 6.808 10.5518 6.384 10.7518 5.888C10.9598 5.384 11.2558 4.86 11.6398 4.316C12.0318 3.772 12.4678 3.26 12.9478 2.78C13.4358 2.3 13.9958 1.904 14.6278 1.592C15.2598 1.28 15.8878 1.124 16.5118 1.124C16.6718 1.124 16.8278 1.184 16.9798 1.304C17.1318 1.416 17.2078 1.592 17.2078 1.832C17.2078 2.064 17.1198 2.372 16.9438 2.756C16.7758 3.14 16.5198 3.588 16.1758 4.1C15.8318 4.612 15.5118 5.076 15.2158 5.492C14.9278 5.9 14.5398 6.4 14.0518 6.992C13.5718 7.584 13.2358 7.996 13.0438 8.228C12.8518 8.452 12.5678 8.788 12.1918 9.236C12.1998 9.244 12.2358 9.224 12.2998 9.176C15.7078 6.088 17.6318 4.348 18.0718 3.956C18.5118 3.564 18.7478 3.348 18.7798 3.308C18.8198 3.268 18.8478 3.24 18.8638 3.224C18.9278 3.16 19.0078 3.128 19.1038 3.128C19.2078 3.128 19.2598 3.176 19.2598 3.272C19.2598 3.512 18.9078 4.12 18.2038 5.096C17.5078 6.072 16.8118 7.004 16.1158 7.892C15.4198 8.78 15.0718 9.24 15.0718 9.272L15.0838 9.284C15.5718 8.86 16.5718 7.944 18.0838 6.536C19.6038 5.12 20.9278 3.9 22.0558 2.876C23.1918 1.852 23.8238 1.34 23.9518 1.34C24.0398 1.34 24.0838 1.396 24.0838 1.508C24.0838 1.724 23.8998 2.108 23.5318 2.66C23.1718 3.212 22.5238 4.08 21.5878 5.264C21.5478 5.312 20.8998 6.088 19.6438 7.592C16.8758 10.896 15.4918 12.804 15.4918 13.316C15.4918 13.348 15.5158 13.364 15.5638 13.364C15.6198 13.364 15.8198 13.272 16.1638 13.088C16.5158 12.912 16.7598 12.764 16.8958 12.644C17.0318 12.524 17.1118 12.464 17.1358 12.464C17.1598 12.464 17.1718 12.48 17.1718 12.512C17.1718 12.552 17.1638 12.58 17.1478 12.596C17.0598 12.708 16.7878 12.892 16.3318 13.148C15.8838 13.404 15.5998 13.532 15.4798 13.532C15.3598 13.532 15.2998 13.48 15.2998 13.376C15.2998 12.872 15.7278 11.984 16.5838 10.712C17.9278 8.704 19.5558 6.644 21.4678 4.532C21.7078 4.26 22.1518 3.724 22.7998 2.924C23.4478 2.124 23.7718 1.692 23.7718 1.628C23.7718 1.612 23.7678 1.604 23.7598 1.604C23.7118 1.604 22.2318 2.94 19.3198 5.612C16.4158 8.284 14.5358 10.028 13.6798 10.844C13.5838 10.94 13.4918 10.988 13.4038 10.988C13.1718 10.988 13.0558 10.96 13.0558 10.904C13.0558 10.848 13.1118 10.752 13.2238 10.616C13.3358 10.472 13.9358 9.736 15.0238 8.408C17.5838 5.28 18.8638 3.64 18.8638 3.488L18.8518 3.476C18.7798 3.508 17.7318 4.444 15.7078 6.284C12.7478 8.956 11.0678 10.508 10.6678 10.94Z" stroke="#191919" stroke-width="2" mask="url(#path-1-outside-1_2_8)"/>
</svg>
